<?xml version="1.0" encoding="UTF-8" standalone="no"?>
<!-- Created with Inkscape (http://www.inkscape.org/) -->

<svg
   xmlns:dc="http://purl.org/dc/elements/1.1/"
   xmlns:cc="http://creativecommons.org/ns#"
   xmlns:rdf="http://www.w3.org/1999/02/22-rdf-syntax-ns#"
   xmlns:svg="http://www.w3.org/2000/svg"
   xmlns="http://www.w3.org/2000/svg"
   xmlns:sodipodi="http://sodipodi.sourceforge.net/DTD/sodipodi-0.dtd"
   xmlns:inkscape="http://www.inkscape.org/namespaces/inkscape"
   width="700mm"
   height="700mm"
   viewBox="0 0 700 700"
   version="1.1"
   id="svg4917"
   inkscape:export-filename="C:\Users\suitedoalex\sites\microsoft-access-logo-0.png"
   inkscape:export-xdpi="148.6263"
   inkscape:export-ydpi="148.6263"
   inkscape:version="0.92.4 (5da689c313, 2019-01-14)"
   sodipodi:docname="microsoft-access-logo.svg">
  <defs
     id="defs4911">
    <clipPath
       clipPathUnits="userSpaceOnUse"
       id="clipPath1479">
      <path
         d="m 3483.3333,4512.5 h 200 v 200 h -200 z"
         id="path1477"
         inkscape:connector-curvature="0"
         style="clip-rule:evenodd" />
    </clipPath>
  </defs>
  <sodipodi:namedview
     id="base"
     pagecolor="#ffffff"
     bordercolor="#666666"
     borderopacity="1.0"
     inkscape:pageopacity="0.0"
     inkscape:pageshadow="2"
     inkscape:zoom="0.0875"
     inkscape:cx="908.06184"
     inkscape:cy="1518.543"
     inkscape:document-units="mm"
     inkscape:current-layer="layer1"
     showgrid="false"
     inkscape:window-width="1600"
     inkscape:window-height="837"
     inkscape:window-x="-8"
     inkscape:window-y="-8"
     inkscape:window-maximized="1" />
  <metadata
     id="metadata4914">
    <rdf:RDF>
      <cc:Work
         rdf:about="">
        <dc:format>image/svg+xml</dc:format>
        <dc:type
           rdf:resource="http://purl.org/dc/dcmitype/StillImage" />
        <dc:title></dc:title>
      </cc:Work>
    </rdf:RDF>
  </metadata>
  <g
     inkscape:label="Layer 1"
     inkscape:groupmode="layer"
     id="layer1"
     transform="translate(0,403)">
    <g
       id="g1473"
       transform="matrix(2.8840966,0,0,2.8840966,-9980.1729,-13355.896)"
       inkscape:export-xdpi="20.496267"
       inkscape:export-ydpi="20.496267">
      <g
         id="g1475"
         clip-path="url(#clipPath1479)">
        <g
           id="g1481"
           transform="matrix(3.1249995,0,0,3.1249995,3483.3333,4512.5)">
          <path
             d="m 16.999781,38.5 v 13 c 0,3.58984 9.402,6.5 20.999998,6.5 11.597999,0 21,-2.91016 21,-6.5 v -13 z"
             style="fill:#881421;fill-opacity:1;fill-rule:nonzero;stroke:none"
             id="path1483"
             inkscape:connector-curvature="0" />
          <path
             d="m 16.999781,25.5 v 13 c 0,3.58984 9.402,6.5 20.999998,6.5 11.597999,0 21,-2.91016 21,-6.5 v -13 z"
             style="fill:#af2031;fill-opacity:1;fill-rule:nonzero;stroke:none"
             id="path1485"
             inkscape:connector-curvature="0" />
          <path
             d="m 16.999781,12.5 v 13 c 0,3.58984 9.402,6.5 20.999998,6.5 11.597999,0 21,-2.91016 21,-6.5 v -13 z"
             style="fill:#c94f60;fill-opacity:1;fill-rule:nonzero;stroke:none"
             id="path1487"
             inkscape:connector-curvature="0" />
          <path
             d="m 58.999779,12.5 c -4e-6,0.426795 -0.134506,0.84949 -0.403515,1.268085 -0.269009,0.418594 -0.667347,0.825045 -1.195023,1.219354 -0.527675,0.394308 -1.174545,0.768896 -1.940609,1.123765 -0.766063,0.354868 -1.636604,0.683199 -2.611618,0.984989 -0.975013,0.301791 -2.03577,0.571242 -3.18227,0.808358 -1.146496,0.237114 -2.356701,0.437336 -3.630623,0.600664 -1.273918,0.163328 -2.58707,0.286623 -3.939453,0.369888 -1.352382,0.08326 -2.718014,0.124895 -4.096889,0.124897 -1.37888,-2e-6 -2.744515,-0.04163 -4.096897,-0.124897 -1.352387,-0.08327 -2.665539,-0.20656 -3.939457,-0.369888 -1.27392,-0.163328 -2.484127,-0.36355 -3.630623,-0.600666 C 25.186304,17.667435 24.125549,17.397984 23.150536,17.096193 22.17552,16.794403 21.304979,16.466072 20.538914,16.111204 19.77285,15.756335 19.12598,15.381747 18.598307,14.98744 18.070633,14.593131 17.672293,14.18668 17.403288,13.768086 17.134281,13.34949 16.999779,12.926795 16.999779,12.5 c 0,-0.426797 0.134502,-0.849493 0.403509,-1.268088 0.269005,-0.418596 0.667345,-0.825048 1.195019,-1.219355 C 19.12598,9.618248 19.77285,9.24366 20.538914,8.888792 21.304979,8.5339251 22.17552,8.205596 23.150536,7.9038053 24.125549,7.602015 25.186304,7.3325624 26.332802,7.0954471 27.479298,6.8583317 28.689505,6.6581101 29.963425,6.4947824 31.237343,6.3314548 32.550495,6.208159 33.902882,6.1248956 35.255264,6.0416317 36.620899,6 37.999779,6 c 1.378875,0 2.744507,0.041632 4.096889,0.1248956 1.352383,0.083263 2.665535,0.2065592 3.939453,0.3698868 1.273922,0.1633277 2.484131,0.3635493 3.630627,0.6006642 1.146496,0.2371154 2.207253,0.5065684 3.182266,0.8083587 0.975014,0.3017907 1.845555,0.6301198 2.611618,0.9849867 0.766064,0.354868 1.41293,0.729456 1.940605,1.123765 0.527676,0.394307 0.926018,0.800759 1.195027,1.219355 0.269009,0.418595 0.403511,0.841291 0.403515,1.268088 z"
             style="fill:#e08095;fill-opacity:1;fill-rule:nonzero;stroke:none"
             id="path1489"
             inkscape:connector-curvature="0" />
          <path
             d="m 33,20.33008 v 26.339842 c 0.0022,0.134853 -0.01112,0.268154 -0.04,0.399898 -0.04547,0.270497 -0.136173,0.524861 -0.27211,0.763096 -0.135933,0.23824 -0.308765,0.445744 -0.518497,0.622513 -0.209731,0.176769 -0.443503,0.311974 -0.701317,0.405605 C 31.21026,48.954666 30.944208,49.000988 30.66992,49 H 17 V 18 h 13.66992 c 0.309151,-5.44e-4 0.606588,0.05821 0.892313,0.17627 0.285725,0.118057 0.537891,0.286388 0.7565,0.504995 0.218601,0.218603 0.386933,0.470768 0.50499,0.756492 0.118061,0.285725 0.176819,0.583167 0.176277,0.892323 z"
             style="fill:#000000;fill-opacity:0.2;fill-rule:nonzero;stroke:none"
             id="path1491"
             inkscape:connector-curvature="0" />
          <path
             d="m 34,20.33008 v 24.339842 c -0.0041,0.440319 -0.09139,0.863491 -0.261806,1.269516 -0.170414,0.406025 -0.411305,0.764721 -0.722672,1.076088 -0.311367,0.311367 -0.670063,0.552254 -1.076086,0.722668 C 31.533411,47.908607 31.110239,47.995876 30.66992,48 H 17 V 17 h 13.66992 c 0.441122,0.0015 0.865309,0.08707 1.27256,0.256594 0.407251,0.169523 0.766836,0.410244 1.078756,0.722166 0.311924,0.311922 0.552647,0.67151 0.722168,1.078762 C 33.91293,19.464773 33.998463,19.888958 34,20.33008 Z"
             style="fill:#000000;fill-opacity:0.09800002;fill-rule:nonzero;stroke:none"
             id="path1493"
             inkscape:connector-curvature="0" />
          <path
             d="m 33,20.33008 v 24.339842 c 5.42e-4,0.309151 -0.05822,0.606586 -0.176273,0.892311 -0.118058,0.285725 -0.286389,0.537891 -0.504994,0.7565 -0.218605,0.218601 -0.470772,0.386933 -0.756498,0.50499 C 31.27651,46.941784 30.979073,47.000542 30.66992,47 H 17 V 18 h 13.66992 c 0.309151,-5.44e-4 0.606588,0.05821 0.892313,0.17627 0.285725,0.118057 0.537891,0.286388 0.7565,0.504995 0.218601,0.218603 0.386933,0.470768 0.50499,0.756492 0.118061,0.285725 0.176819,0.583167 0.176277,0.892323 z"
             style="fill:#000000;fill-opacity:0.2;fill-rule:nonzero;stroke:none"
             id="path1495"
             inkscape:connector-curvature="0" />
          <path
             d="m 32,20.33008 v 24.339842 c 5.42e-4,0.309154 -0.05822,0.606594 -0.176273,0.892319 -0.118058,0.285724 -0.286389,0.537887 -0.504994,0.756492 -0.218605,0.218605 -0.47077,0.386936 -0.756494,0.504994 C 30.276512,46.941784 29.979073,47.000542 29.66992,47 H 17 V 18 h 12.66992 c 0.309153,-5.44e-4 0.60659,0.05821 0.892317,0.176271 0.285724,0.118056 0.537889,0.286387 0.756496,0.504994 0.218603,0.218603 0.386934,0.470768 0.504992,0.756492 0.118059,0.285727 0.176817,0.583167 0.176275,0.892323 z"
             style="fill:#000000;fill-opacity:0.09800002;fill-rule:nonzero;stroke:none"
             id="path1497"
             inkscape:connector-curvature="0" />
          <path
             d="M 6.3335495,18 H 29.666891 c 0.309418,0 0.60706,0.0592 0.892923,0.177612 0.285866,0.11841 0.538195,0.28701 0.756987,0.505802 0.21879,0.218792 0.38739,0.471121 0.5058,0.756987 0.11841,0.285868 0.177616,0.58351 0.17762,0.892929 v 23.333342 c -4e-6,0.309417 -0.05921,0.607059 -0.17762,0.892921 -0.11841,0.285862 -0.287008,0.538193 -0.505796,0.756985 -0.218794,0.218792 -0.471125,0.38739 -0.756991,0.505802 C 30.273951,45.940792 29.976309,45.999996 29.666891,46 H 6.3335495 C 6.0241303,45.999996 5.7264881,45.940792 5.4406223,45.82238 5.154757,45.703968 4.9024282,45.53537 4.6836362,45.316578 4.4648438,45.097786 4.2962432,44.845455 4.1778336,44.559593 4.0594239,44.273731 4.0002193,43.976089 4.0002198,43.666672 V 20.33333 c -5e-7,-0.309419 0.059204,-0.607061 0.1776138,-0.892929 C 4.2962432,19.154535 4.4648438,18.902206 4.6836362,18.683414 4.9024282,18.464622 5.154757,18.296022 5.4406223,18.177612 5.7264881,18.059204 6.0241303,18 6.3335495,18 Z"
             style="fill:#af2031;fill-opacity:1;fill-rule:nonzero;stroke:none"
             id="path1499"
             inkscape:connector-curvature="0" />
          <path
             d="m 16.323811,24.4165 h 3.437429 l 5.521,15.167 h -3.247 l -1.21632,-3.61723 h -5.6797 l -1.19516,3.61723 h -3.225899 z m 3.76531,9.212311 L 18.322809,28.1395 C 18.17716,27.736643 18.067867,27.324152 17.994928,26.902029 h -0.06346 c -0.06615,0.43297 -0.171917,0.856037 -0.317301,1.269199 l -1.78746,5.457579 z"
             style="fill:#ffffff;fill-opacity:1;fill-rule:nonzero;stroke:none"
             id="path1501"
             inkscape:connector-curvature="0" />
        </g>
      </g>
    </g>
  </g>
</svg>
